<svg width="64" height="64" viewBox="0 0 64 64" fill="none" xmlns="http://www.w3.org/2000/svg">
<path d="M0 31.9968C0 14.3255 14.3255 0 31.9968 0C49.6682 0 63.9936 14.3255 63.9936 31.9968C63.9936 49.6682 49.6682 63.9936 31.9968 63.9936C14.3255 63.9936 0 49.6682 0 31.9968Z" fill="#D7B56E" fill-opacity="0.2"/>
<path d="M39.7177 41.5836L37.3187 30.6545L41.9835 25.9897C43.9827 23.9905 44.6491 21.3249 43.9827 19.9921C42.6499 19.3257 39.9843 19.9921 37.9851 21.9913L33.3203 26.6561L22.3912 24.2571C21.7248 24.1238 21.1917 24.3904 20.9252 24.9235L20.5253 25.5899C20.2587 26.2563 20.392 26.9227 20.9252 27.3225L27.989 31.9874L25.3234 35.9858H21.325L19.9922 37.3186L23.9906 39.9842L26.6562 43.9826L27.989 42.6498V38.6514L31.9875 35.9858L36.6523 43.0497C37.0521 43.5828 37.7185 43.7161 38.3849 43.4495L39.0513 43.1829C39.5845 42.7831 39.851 42.25 39.7177 41.5836Z" stroke="#D7B56E" stroke-width="2.66561" stroke-linecap="round" stroke-linejoin="round"/>
</svg>
