<svg width="20" height="20" viewBox="0 0 20 20" fill="none" xmlns="http://www.w3.org/2000/svg">
<path d="M8.33008 18.3262V12.8533" stroke="#D7B56E" stroke-width="1.66601" stroke-linecap="round" stroke-linejoin="round"/>
<path d="M9.99609 9.16302H10.0044" stroke="#D7B56E" stroke-width="1.66601" stroke-linecap="round" stroke-linejoin="round"/>
<path d="M9.99609 5.83105H10.0044" stroke="#D7B56E" stroke-width="1.66601" stroke-linecap="round" stroke-linejoin="round"/>
<path d="M11.6621 12.8533V18.3262" stroke="#D7B56E" stroke-width="1.66601" stroke-linecap="round" stroke-linejoin="round"/>
<path d="M12.4951 13.3281C11.7741 12.7873 10.8973 12.4951 9.99608 12.4951C9.0949 12.4951 8.21802 12.7873 7.49707 13.3281" stroke="#D7B56E" stroke-width="1.66601" stroke-linecap="round" stroke-linejoin="round"/>
<path d="M13.3281 9.16302H13.3365" stroke="#D7B56E" stroke-width="1.66601" stroke-linecap="round" stroke-linejoin="round"/>
<path d="M13.3281 5.83105H13.3365" stroke="#D7B56E" stroke-width="1.66601" stroke-linecap="round" stroke-linejoin="round"/>
<path d="M6.66406 9.16302H6.67239" stroke="#D7B56E" stroke-width="1.66601" stroke-linecap="round" stroke-linejoin="round"/>
<path d="M6.66406 5.83105H6.67239" stroke="#D7B56E" stroke-width="1.66601" stroke-linecap="round" stroke-linejoin="round"/>
<path d="M14.9941 1.66602H4.99804C4.07793 1.66602 3.33203 2.41191 3.33203 3.33202V16.6601C3.33203 17.5802 4.07793 18.3261 4.99804 18.3261H14.9941C15.9142 18.3261 16.6601 17.5802 16.6601 16.6601V3.33202C16.6601 2.41191 15.9142 1.66602 14.9941 1.66602Z" stroke="#D7B56E" stroke-width="1.66601" stroke-linecap="round" stroke-linejoin="round"/>
</svg>
