<svg width="64" height="64" viewBox="0 0 64 64" fill="none" xmlns="http://www.w3.org/2000/svg">
<path d="M0 31.9968C0 14.3255 14.3255 0 31.9968 0C49.6682 0 63.9936 14.3255 63.9936 31.9968C63.9936 49.6682 49.6682 63.9936 31.9968 63.9936C14.3255 63.9936 0 49.6682 0 31.9968Z" fill="#D7B56E" fill-opacity="0.2"/>
<path d="M18.6592 28.6554C18.6592 27.1722 19.1091 25.724 19.9495 24.5019C20.7899 23.2798 21.9812 22.3414 23.3661 21.8106C24.751 21.2798 26.2644 21.1816 27.7063 21.5289C29.1482 21.8762 30.4508 22.6528 31.4421 23.756C31.512 23.8306 31.5964 23.8901 31.6901 23.9308C31.7839 23.9715 31.885 23.9925 31.9873 23.9925C32.0895 23.9925 32.1906 23.9715 32.2844 23.9308C32.3781 23.8901 32.4626 23.8306 32.5324 23.756C33.5206 22.6456 34.8235 21.8625 36.2677 21.511C37.712 21.1594 39.2291 21.2561 40.617 21.7881C42.005 22.32 43.198 23.2621 44.0373 24.4889C44.8766 25.7157 45.3224 27.169 45.3153 28.6554C45.3153 31.7075 43.3161 33.9866 41.3169 35.9858L33.9971 43.067C33.7488 43.3523 33.4426 43.5814 33.0989 43.7392C32.7552 43.8969 32.3818 43.9798 32.0036 43.9822C31.6254 43.9846 31.2511 43.9065 30.9054 43.7531C30.5597 43.5996 30.2506 43.3744 29.9987 43.0923L22.6576 35.9858C20.6584 33.9866 18.6592 31.7208 18.6592 28.6554Z" stroke="#D7B56E" stroke-width="2.66561" stroke-linecap="round" stroke-linejoin="round"/>
</svg>
