<svg width="64" height="64" viewBox="0 0 64 64" fill="none" xmlns="http://www.w3.org/2000/svg">
<path d="M0 31.9968C0 14.3255 14.3255 0 31.9968 0C49.6682 0 63.9936 14.3255 63.9936 31.9968C63.9936 49.6682 49.6682 63.9936 31.9968 63.9936C14.3255 63.9936 0 49.6682 0 31.9968Z" fill="#D7B56E" fill-opacity="0.2"/>
<path d="M37.3185 43.9826V41.3169C37.3185 39.903 36.7568 38.547 35.757 37.5472C34.7572 36.5474 33.4012 35.9857 31.9873 35.9857H23.9904C22.5765 35.9857 21.2205 36.5474 20.2207 37.5472C19.2209 38.547 18.6592 39.903 18.6592 41.3169V43.9826" stroke="#D7B56E" stroke-width="2.66561" stroke-linecap="round" stroke-linejoin="round"/>
<path d="M37.3184 20.1628C38.4616 20.4592 39.474 21.1268 40.1968 22.0608C40.9196 22.9949 41.3117 24.1425 41.3117 25.3235C41.3117 26.5045 40.9196 27.6521 40.1968 28.5861C39.474 29.5201 38.4616 30.1877 37.3184 30.4841" stroke="#D7B56E" stroke-width="2.66561" stroke-linecap="round" stroke-linejoin="round"/>
<path d="M45.3153 43.9828V41.3171C45.3144 40.1359 44.9213 38.9884 44.1976 38.0549C43.4739 37.1213 42.4606 36.4545 41.3169 36.1592" stroke="#D7B56E" stroke-width="2.66561" stroke-linecap="round" stroke-linejoin="round"/>
<path d="M27.9889 30.6546C30.9333 30.6546 33.3202 28.2678 33.3202 25.3234C33.3202 22.3791 30.9333 19.9922 27.9889 19.9922C25.0446 19.9922 22.6577 22.3791 22.6577 25.3234C22.6577 28.2678 25.0446 30.6546 27.9889 30.6546Z" stroke="#D7B56E" stroke-width="2.66561" stroke-linecap="round" stroke-linejoin="round"/>
</svg>
