<svg width="16" height="16" viewBox="0 0 16 16" fill="none" xmlns="http://www.w3.org/2000/svg">
<g clip-path="url(#clip0_3_11368)">
<path d="M10.6627 13.9945V12.6617C10.6627 11.9547 10.3818 11.2767 9.88192 10.7768C9.38202 10.2769 8.70401 9.99605 7.99704 9.99605H3.99862C3.29166 9.99605 2.61365 10.2769 2.11375 10.7768C1.61385 11.2767 1.33301 11.9547 1.33301 12.6617V13.9945" stroke="#D7B56E" stroke-width="1.33281" stroke-linecap="round" stroke-linejoin="round"/>
<path d="M10.6626 2.08455C11.2342 2.23274 11.7404 2.56653 12.1018 3.03355C12.4632 3.50056 12.6593 4.07436 12.6593 4.66486C12.6593 5.25537 12.4632 5.82916 12.1018 6.29618C11.7404 6.76319 11.2342 7.09699 10.6626 7.24518" stroke="#D7B56E" stroke-width="1.33281" stroke-linecap="round" stroke-linejoin="round"/>
<path d="M14.6608 13.9945V12.6617C14.6604 12.0711 14.4638 11.4973 14.102 11.0305C13.7401 10.5637 13.2335 10.2303 12.6616 10.0827" stroke="#D7B56E" stroke-width="1.33281" stroke-linecap="round" stroke-linejoin="round"/>
<path d="M5.99765 7.33044C7.46982 7.33044 8.66326 6.137 8.66326 4.66482C8.66326 3.19264 7.46982 1.99921 5.99765 1.99921C4.52547 1.99921 3.33203 3.19264 3.33203 4.66482C3.33203 6.137 4.52547 7.33044 5.99765 7.33044Z" stroke="#D7B56E" stroke-width="1.33281" stroke-linecap="round" stroke-linejoin="round"/>
</g>
<defs>
<clipPath id="clip0_3_11368">
<rect width="15.9937" height="15.9937" fill="white"/>
</clipPath>
</defs>
</svg>
