<svg width="20" height="20" viewBox="0 0 20 20" fill="none" xmlns="http://www.w3.org/2000/svg">
<g clip-path="url(#clip0_3_9809)">
<path d="M8.33024 16.6601C8.33017 16.8149 8.37323 16.9667 8.4546 17.0983C8.53597 17.23 8.65242 17.3364 8.79089 17.4056L10.4569 18.2386C10.5839 18.3021 10.7251 18.3321 10.8669 18.3256C11.0088 18.3192 11.1467 18.2766 11.2674 18.2019C11.3882 18.1272 11.4879 18.0229 11.557 17.8988C11.6261 17.7748 11.6623 17.6351 11.6623 17.4931V11.6621C11.6624 11.2492 11.8159 10.8511 12.0929 10.545L18.1097 3.89014C18.2176 3.77065 18.2885 3.62248 18.3139 3.46355C18.3393 3.30461 18.3181 3.14171 18.2529 2.99456C18.1877 2.8474 18.0813 2.72229 17.9465 2.63435C17.8116 2.54641 17.6542 2.4994 17.4933 2.49902H2.49921C2.33811 2.49908 2.18049 2.54585 2.04543 2.63367C1.91037 2.72148 1.80367 2.84658 1.73826 2.9938C1.67285 3.14102 1.65153 3.30405 1.67689 3.46314C1.70224 3.62222 1.77318 3.77055 1.88112 3.89014L7.89958 10.545C8.17658 10.8511 8.33005 11.2492 8.33024 11.6621V16.6601Z" stroke="#D7B56E" stroke-width="1.66601" stroke-linecap="round" stroke-linejoin="round"/>
</g>
<defs>
<clipPath id="clip0_3_9809">
<rect width="19.9921" height="19.9921" fill="white"/>
</clipPath>
</defs>
</svg>
