<svg width="24" height="24" viewBox="0 0 24 24" fill="none" xmlns="http://www.w3.org/2000/svg">
<path d="M16.9933 1.99902H6.99729C4.23696 1.99902 1.99927 4.23672 1.99927 6.99705V16.9931C1.99927 19.7534 4.23696 21.9911 6.99729 21.9911H16.9933C19.7537 21.9911 21.9914 19.7534 21.9914 16.9931V6.99705C21.9914 4.23672 19.7537 1.99902 16.9933 1.99902Z" stroke="#BCBCBC" stroke-width="1.99921" stroke-linecap="round" stroke-linejoin="round"/>
<path d="M15.9936 11.3655C16.117 12.1975 15.9749 13.0471 15.5876 13.7936C15.2002 14.5401 14.5873 15.1455 13.8361 15.5236C13.0849 15.9017 12.2336 16.0333 11.4032 15.8997C10.5729 15.7661 9.80584 15.374 9.21115 14.7794C8.61647 14.1847 8.22444 13.4176 8.09082 12.5873C7.95721 11.7569 8.08882 10.9056 8.46694 10.1544C8.84505 9.40317 9.45041 8.79029 10.1969 8.40295C10.9434 8.0156 11.7931 7.8735 12.625 7.99687C13.4736 8.1227 14.2592 8.51812 14.8658 9.12473C15.4724 9.73133 15.8678 10.5169 15.9936 11.3655Z" stroke="#BCBCBC" stroke-width="1.99921" stroke-linecap="round" stroke-linejoin="round"/>
<path d="M17.4932 6.49756H17.5032" stroke="#BCBCBC" stroke-width="1.99921" stroke-linecap="round" stroke-linejoin="round"/>
</svg>
