<svg width="48" height="48" viewBox="0 0 48 48" fill="none" xmlns="http://www.w3.org/2000/svg">
<path d="M0 24C0 10.7452 10.7452 0 24 0C37.2548 0 47.9999 10.7452 47.9999 24C47.9999 37.2548 37.2548 47.9999 24 47.9999C10.7452 47.9999 0 37.2548 0 24Z" fill="#D7B56E" fill-opacity="0.2"/>
<path d="M28.9882 14.0038H18.9922C16.2318 14.0038 13.9941 16.2415 13.9941 19.0019V28.9979C13.9941 31.7583 16.2318 33.996 18.9922 33.996H28.9882C31.7486 33.996 33.9862 31.7583 33.9862 28.9979V19.0019C33.9862 16.2415 31.7486 14.0038 28.9882 14.0038Z" stroke="#D7B56E" stroke-width="1.99921" stroke-linecap="round" stroke-linejoin="round"/>
<path d="M27.9888 23.3702C28.1121 24.2022 27.97 25.0518 27.5827 25.7983C27.1953 26.5448 26.5825 27.1502 25.8312 27.5283C25.08 27.9064 24.2287 28.038 23.3984 27.9044C22.568 27.7708 21.801 27.3787 21.2063 26.784C20.6116 26.1894 20.2196 25.4223 20.0859 24.592C19.9523 23.7616 20.0839 22.9103 20.4621 22.1591C20.8402 21.4079 21.4455 20.795 22.192 20.4076C22.9385 20.0203 23.7882 19.8782 24.6201 20.0016C25.4687 20.1274 26.2543 20.5228 26.8609 21.1294C27.4675 21.736 27.8629 22.5216 27.9888 23.3702Z" stroke="#D7B56E" stroke-width="1.99921" stroke-linecap="round" stroke-linejoin="round"/>
<path d="M29.4883 18.5021H29.4983" stroke="#D7B56E" stroke-width="1.99921" stroke-linecap="round" stroke-linejoin="round"/>
</svg>
