<svg width="20" height="20" viewBox="0 0 20 20" fill="none" xmlns="http://www.w3.org/2000/svg">
<g clip-path="url(#clip0_3_8440)">
<path d="M16.6601 8.33005C16.6601 12.4892 12.0461 16.8209 10.4967 18.1587C10.3524 18.2672 10.1767 18.3259 9.99607 18.3259C9.81547 18.3259 9.63977 18.2672 9.49543 18.1587C7.94604 16.8209 3.33203 12.4892 3.33203 8.33005C3.33203 6.56264 4.03413 4.86762 5.28388 3.61787C6.53363 2.36812 8.22866 1.66602 9.99607 1.66602C11.7635 1.66602 13.4585 2.36812 14.7083 3.61787C15.958 4.86762 16.6601 6.56264 16.6601 8.33005Z" stroke="white" stroke-width="1.66601" stroke-linecap="round" stroke-linejoin="round"/>
<path d="M9.99608 10.8291C11.3763 10.8291 12.4951 9.71024 12.4951 8.33007C12.4951 6.9499 11.3763 5.83105 9.99608 5.83105C8.61592 5.83105 7.49707 6.9499 7.49707 8.33007C7.49707 9.71024 8.61592 10.8291 9.99608 10.8291Z" stroke="white" stroke-width="1.66601" stroke-linecap="round" stroke-linejoin="round"/>
</g>
<defs>
<clipPath id="clip0_3_8440">
<rect width="19.9921" height="19.9921" fill="white"/>
</clipPath>
</defs>
</svg>
