<svg width="40" height="40" viewBox="0 0 40 40" fill="none" xmlns="http://www.w3.org/2000/svg">
<path d="M0 19.9921C0 8.95077 8.95077 0 19.9921 0C31.0334 0 39.9842 8.95077 39.9842 19.9921C39.9842 31.0334 31.0334 39.9842 19.9921 39.9842C8.95077 39.9842 0 31.0334 0 19.9921Z" fill="#D7B56E" fill-opacity="0.2"/>
<path d="M26.6557 18.3261C26.6557 22.4853 22.0417 26.817 20.4923 28.1548C20.348 28.2633 20.1723 28.322 19.9917 28.322C19.8111 28.322 19.6354 28.2633 19.491 28.1548C17.9416 26.817 13.3276 22.4853 13.3276 18.3261C13.3276 16.5587 14.0297 14.8637 15.2795 13.614C16.5292 12.3642 18.2243 11.6621 19.9917 11.6621C21.7591 11.6621 23.4541 12.3642 24.7039 13.614C25.9536 14.8637 26.6557 16.5587 26.6557 18.3261Z" stroke="#D7B56E" stroke-width="1.66601" stroke-linecap="round" stroke-linejoin="round"/>
<path d="M19.9917 20.8252C21.3719 20.8252 22.4907 19.7063 22.4907 18.3262C22.4907 16.946 21.3719 15.8271 19.9917 15.8271C18.6115 15.8271 17.4927 16.946 17.4927 18.3262C17.4927 19.7063 18.6115 20.8252 19.9917 20.8252Z" stroke="#D7B56E" stroke-width="1.66601" stroke-linecap="round" stroke-linejoin="round"/>
</svg>
