<svg width="64" height="64" viewBox="0 0 64 64" fill="none" xmlns="http://www.w3.org/2000/svg">
<path d="M0 31.9968C0 14.3255 14.3255 0 31.9968 0C49.6682 0 63.9936 14.3255 63.9936 31.9968C63.9936 49.6682 49.6682 63.9936 31.9968 63.9936C14.3255 63.9936 0 49.6682 0 31.9968Z" fill="#D7B56E" fill-opacity="0.2"/>
<path d="M39.984 19.9921H23.9903C22.5181 19.9921 21.3247 21.1856 21.3247 22.6577V38.6514C21.3247 40.1236 22.5181 41.317 23.9903 41.317H39.984C41.4562 41.317 42.6496 40.1236 42.6496 38.6514V22.6577C42.6496 21.1856 41.4562 19.9921 39.984 19.9921Z" stroke="#D7B56E" stroke-width="2.66561" stroke-linecap="round" stroke-linejoin="round"/>
<path d="M21.3247 30.6546H42.6496" stroke="#D7B56E" stroke-width="2.66561" stroke-linecap="round" stroke-linejoin="round"/>
<path d="M31.9873 19.9921V30.6546" stroke="#D7B56E" stroke-width="2.66561" stroke-linecap="round" stroke-linejoin="round"/>
<path d="M26.6563 41.317L23.9907 45.3155" stroke="#D7B56E" stroke-width="2.66561" stroke-linecap="round" stroke-linejoin="round"/>
<path d="M39.984 45.3155L37.3184 41.317" stroke="#D7B56E" stroke-width="2.66561" stroke-linecap="round" stroke-linejoin="round"/>
<path d="M26.6562 35.9858H26.6696" stroke="#D7B56E" stroke-width="2.66561" stroke-linecap="round" stroke-linejoin="round"/>
<path d="M37.3184 35.9858H37.3317" stroke="#D7B56E" stroke-width="2.66561" stroke-linecap="round" stroke-linejoin="round"/>
</svg>
