<svg width="20" height="20" viewBox="0 0 20 20" fill="none" xmlns="http://www.w3.org/2000/svg">
<path d="M7.49707 14.9941V4.16503L17.4931 2.49902V13.3281" stroke="white" stroke-width="1.66601" stroke-linecap="round" stroke-linejoin="round"/>
<path d="M4.99804 17.4931C6.3782 17.4931 7.49705 16.3742 7.49705 14.9941C7.49705 13.6139 6.3782 12.4951 4.99804 12.4951C3.61787 12.4951 2.49902 13.6139 2.49902 14.9941C2.49902 16.3742 3.61787 17.4931 4.99804 17.4931Z" stroke="white" stroke-width="1.66601" stroke-linecap="round" stroke-linejoin="round"/>
<path d="M14.9941 15.8271C16.3743 15.8271 17.4931 14.7083 17.4931 13.3281C17.4931 11.9479 16.3743 10.8291 14.9941 10.8291C13.614 10.8291 12.4951 11.9479 12.4951 13.3281C12.4951 14.7083 13.614 15.8271 14.9941 15.8271Z" stroke="white" stroke-width="1.66601" stroke-linecap="round" stroke-linejoin="round"/>
</svg>
