<svg width="64" height="64" viewBox="0 0 64 64" fill="none" xmlns="http://www.w3.org/2000/svg">
<path d="M0 31.9968C0 14.3255 14.3255 0 31.9968 0C49.6682 0 63.9936 14.3255 63.9936 31.9968C63.9936 49.6682 49.6682 63.9936 31.9968 63.9936C14.3255 63.9936 0 49.6682 0 31.9968Z" fill="#D7B56E" fill-opacity="0.2"/>
<path d="M27.9888 39.9842V22.6577L43.9825 19.9921V37.3186" stroke="#D7B56E" stroke-width="2.66561" stroke-linecap="round" stroke-linejoin="round"/>
<path d="M23.9906 43.9826C26.1989 43.9826 27.989 42.1924 27.989 39.9842C27.989 37.7759 26.1989 35.9857 23.9906 35.9857C21.7823 35.9857 19.9922 37.7759 19.9922 39.9842C19.9922 42.1924 21.7823 43.9826 23.9906 43.9826Z" stroke="#D7B56E" stroke-width="2.66561" stroke-linecap="round" stroke-linejoin="round"/>
<path d="M39.9843 41.317C42.1925 41.317 43.9827 39.5268 43.9827 37.3186C43.9827 35.1103 42.1925 33.3202 39.9843 33.3202C37.776 33.3202 35.9858 35.1103 35.9858 37.3186C35.9858 39.5268 37.776 41.317 39.9843 41.317Z" stroke="#D7B56E" stroke-width="2.66561" stroke-linecap="round" stroke-linejoin="round"/>
</svg>
