<svg width="48" height="48" viewBox="0 0 48 48" fill="none" xmlns="http://www.w3.org/2000/svg">
<path d="M0 24C0 10.7452 10.7452 0 24 0C37.2548 0 47.9999 10.7452 47.9999 24C47.9999 37.2548 37.2548 47.9999 24 47.9999C10.7452 47.9999 0 37.2548 0 24Z" fill="#D7B56E" fill-opacity="0.2"/>
<path d="M33.9862 16.0031C33.9862 16.0031 33.2865 18.1022 31.987 19.4017C33.5864 29.3978 22.5907 36.6949 13.9941 30.9972C16.1933 31.0971 18.3924 30.3974 19.9918 28.9979C14.9937 27.4985 12.4947 21.6009 14.9937 17.0027C17.1929 19.6017 20.5915 21.1011 23.9902 21.0011C23.0905 16.8028 27.9886 14.4037 30.9874 17.2026C32.087 17.2026 33.9862 16.0031 33.9862 16.0031Z" stroke="#D7B56E" stroke-width="1.99921" stroke-linecap="round" stroke-linejoin="round"/>
</svg>
