<svg width="48" height="48" viewBox="0 0 48 48" fill="none" xmlns="http://www.w3.org/2000/svg">
<path d="M0 24C0 10.7452 10.7452 0 24 0C37.2548 0 47.9999 10.7452 47.9999 24C47.9999 37.2548 37.2548 47.9999 24 47.9999C10.7452 47.9999 0 37.2548 0 24Z" fill="#D7B56E" fill-opacity="0.2"/>
<path d="M14.4944 28.9979C13.7961 25.7025 13.7961 22.2973 14.4944 19.0019C14.5862 18.6672 14.7635 18.3622 15.0088 18.1168C15.2542 17.8715 15.5592 17.6942 15.8939 17.6024C21.2552 16.7142 26.7262 16.7142 32.0875 17.6024C32.4221 17.6942 32.7272 17.8715 32.9725 18.1168C33.2179 18.3622 33.3952 18.6672 33.4869 19.0019C34.1852 22.2973 34.1852 25.7025 33.4869 28.9979C33.3952 29.3326 33.2179 29.6376 32.9725 29.883C32.7272 30.1283 32.4221 30.3056 32.0875 30.3974C26.7262 31.2857 21.2552 31.2857 15.8939 30.3974C15.5592 30.3056 15.2542 30.1283 15.0088 29.883C14.7635 29.6376 14.5862 29.3326 14.4944 28.9979Z" stroke="#D7B56E" stroke-width="1.99921" stroke-linecap="round" stroke-linejoin="round"/>
<path d="M21.9912 26.9987L26.9892 23.9999L21.9912 21.0011V26.9987Z" stroke="#D7B56E" stroke-width="1.99921" stroke-linecap="round" stroke-linejoin="round"/>
</svg>
