<svg width="64" height="64" viewBox="0 0 64 64" fill="none" xmlns="http://www.w3.org/2000/svg">
<path d="M0 31.9968C0 14.3255 14.3255 0 31.9968 0C49.6682 0 63.9936 14.3255 63.9936 31.9968C63.9936 49.6682 49.6682 63.9936 31.9968 63.9936C14.3255 63.9936 0 49.6682 0 31.9968Z" fill="#D7B56E" fill-opacity="0.2"/>
<path d="M36.6214 33.1733L38.6406 44.5369C38.6633 44.6707 38.6445 44.8082 38.5868 44.931C38.5292 45.0539 38.4354 45.1562 38.318 45.2243C38.2006 45.2924 38.0653 45.3231 37.93 45.3122C37.7947 45.3013 37.666 45.2493 37.5611 45.1633L32.7896 41.582C32.5593 41.4099 32.2795 41.317 31.9919 41.317C31.7044 41.317 31.4246 41.4099 31.1943 41.582L26.4148 45.1619C26.3099 45.2478 26.1814 45.2997 26.0463 45.3106C25.9112 45.3215 25.776 45.291 25.6587 45.2231C25.5414 45.1552 25.4476 45.0531 25.3898 44.9305C25.332 44.8079 25.313 44.6706 25.3352 44.5369L27.3531 33.1733" stroke="#D7B56E" stroke-width="2.66561" stroke-linecap="round" stroke-linejoin="round"/>
<path d="M31.9876 34.653C36.4041 34.653 39.9844 31.0727 39.9844 26.6561C39.9844 22.2396 36.4041 18.6593 31.9876 18.6593C27.571 18.6593 23.9907 22.2396 23.9907 26.6561C23.9907 31.0727 27.571 34.653 31.9876 34.653Z" stroke="#D7B56E" stroke-width="2.66561" stroke-linecap="round" stroke-linejoin="round"/>
</svg>
