<svg width="20" height="20" viewBox="0 0 20 20" fill="none" xmlns="http://www.w3.org/2000/svg">
<g clip-path="url(#clip0_3_8422)">
<path d="M13.3281 17.4931V15.8271C13.3281 14.9434 12.977 14.0959 12.3522 13.471C11.7273 12.8461 10.8798 12.4951 9.99606 12.4951H4.99803C4.11433 12.4951 3.26682 12.8461 2.64194 13.471C2.01707 14.0959 1.66602 14.9434 1.66602 15.8271V17.4931" stroke="white" stroke-width="1.66601" stroke-linecap="round" stroke-linejoin="round"/>
<path d="M13.3281 2.60565C14.0426 2.79089 14.6754 3.20813 15.1271 3.7919C15.5789 4.37567 15.824 5.09291 15.824 5.83105C15.824 6.56918 15.5789 7.28642 15.1271 7.87019C14.6754 8.45396 14.0426 8.8712 13.3281 9.05644" stroke="white" stroke-width="1.66601" stroke-linecap="round" stroke-linejoin="round"/>
<path d="M18.3262 17.4931V15.8271C18.3256 15.0889 18.0799 14.3717 17.6276 13.7882C17.1753 13.2047 16.542 12.788 15.8271 12.6034" stroke="white" stroke-width="1.66601" stroke-linecap="round" stroke-linejoin="round"/>
<path d="M7.49706 9.16306C9.33728 9.16306 10.8291 7.67126 10.8291 5.83104C10.8291 3.99082 9.33728 2.49902 7.49706 2.49902C5.65683 2.49902 4.16504 3.99082 4.16504 5.83104C4.16504 7.67126 5.65683 9.16306 7.49706 9.16306Z" stroke="white" stroke-width="1.66601" stroke-linecap="round" stroke-linejoin="round"/>
</g>
<defs>
<clipPath id="clip0_3_8422">
<rect width="19.9921" height="19.9921" fill="white"/>
</clipPath>
</defs>
</svg>
