<svg width="48" height="48" viewBox="0 0 48 48" fill="none" xmlns="http://www.w3.org/2000/svg">
<path d="M0 24C0 10.7452 10.7452 0 24 0C37.2548 0 47.9999 10.7452 47.9999 24C47.9999 37.2548 37.2548 47.9999 24 47.9999C10.7452 47.9999 0 37.2548 0 24Z" fill="#D7B56E" fill-opacity="0.2"/>
<path d="M29.9883 14.0038H26.9895C25.664 14.0038 24.3927 14.5304 23.4554 15.4677C22.5181 16.405 21.9915 17.6763 21.9915 19.0019V22.0007H18.9927V25.9991H21.9915V33.996H25.9899V25.9991H28.9887L29.9883 22.0007H25.9899V19.0019C25.9899 18.7368 26.0952 18.4825 26.2827 18.295C26.4702 18.1076 26.7244 18.0023 26.9895 18.0023H29.9883V14.0038Z" stroke="#D7B56E" stroke-width="1.99921" stroke-linecap="round" stroke-linejoin="round"/>
</svg>
