<svg width="40" height="40" viewBox="0 0 40 40" fill="none" xmlns="http://www.w3.org/2000/svg">
<path d="M0 19.9921C0 8.95077 8.95077 0 19.9921 0C31.0334 0 39.9842 8.95077 39.9842 19.9921C39.9842 31.0334 31.0334 39.9842 19.9921 39.9842C8.95077 39.9842 0 31.0334 0 19.9921Z" fill="#D7B56E" fill-opacity="0.2"/>
<path d="M28.3217 15.8271L20.8322 20.5977C20.578 20.7454 20.2893 20.8231 19.9954 20.8231C19.7015 20.8231 19.4128 20.7454 19.1587 20.5977L11.6616 15.8271" stroke="#D7B56E" stroke-width="1.66601" stroke-linecap="round" stroke-linejoin="round"/>
<path d="M26.6557 13.3281H13.3276C12.4075 13.3281 11.6616 14.074 11.6616 14.9941V24.9902C11.6616 25.9103 12.4075 26.6562 13.3276 26.6562H26.6557C27.5758 26.6562 28.3217 25.9103 28.3217 24.9902V14.9941C28.3217 14.074 27.5758 13.3281 26.6557 13.3281Z" stroke="#D7B56E" stroke-width="1.66601" stroke-linecap="round" stroke-linejoin="round"/>
</svg>
