<svg width="16" height="16" viewBox="0 0 16 16" fill="none" xmlns="http://www.w3.org/2000/svg">
<g clip-path="url(#clip0_3_8617)">
<path d="M9.21765 11.0412C9.35528 11.1044 9.51034 11.1188 9.65727 11.0821C9.80421 11.0454 9.93426 10.9598 10.026 10.8393L10.2626 10.5294C10.3867 10.3638 10.5477 10.2295 10.7328 10.137C10.9178 10.0444 11.1219 9.99626 11.3288 9.99626H13.328C13.6815 9.99626 14.0205 10.1367 14.2705 10.3866C14.5204 10.6366 14.6608 10.9756 14.6608 11.3291V13.3283C14.6608 13.6818 14.5204 14.0208 14.2705 14.2707C14.0205 14.5207 13.6815 14.6611 13.328 14.6611C10.1467 14.6611 7.09564 13.3973 4.8461 11.1477C2.59655 8.8982 1.33276 5.84716 1.33276 2.66582C1.33276 2.31233 1.47318 1.97333 1.72313 1.72338C1.97308 1.47343 2.31209 1.33301 2.66557 1.33301H4.66478C5.01826 1.33301 5.35727 1.47343 5.60722 1.72338C5.85717 1.97333 5.99759 2.31233 5.99759 2.66582V4.66503C5.99759 4.87194 5.94941 5.07601 5.85688 5.26108C5.76435 5.44614 5.63 5.60713 5.46447 5.73127L5.15259 5.96518C5.03025 6.05859 4.94402 6.19148 4.90855 6.34126C4.87307 6.49105 4.89055 6.64849 4.958 6.78686C5.86876 8.6367 7.36667 10.1327 9.21765 11.0412Z" stroke="#BCBCBC" stroke-width="1.33281" stroke-linecap="round" stroke-linejoin="round"/>
</g>
<defs>
<clipPath id="clip0_3_8617">
<rect width="15.9937" height="15.9937" fill="white"/>
</clipPath>
</defs>
</svg>
