<svg width="40" height="40" viewBox="0 0 40 40" fill="none" xmlns="http://www.w3.org/2000/svg">
<path d="M0 19.9921C0 8.95077 8.95077 0 19.9921 0C31.0334 0 39.9842 8.95077 39.9842 19.9921C39.9842 31.0334 31.0334 39.9842 19.9921 39.9842C8.95077 39.9842 0 31.0334 0 19.9921Z" fill="#D7B56E" fill-opacity="0.2"/>
<path d="M21.5177 23.7973C21.6898 23.8763 21.8836 23.8944 22.0673 23.8485C22.2509 23.8026 22.4135 23.6955 22.5282 23.5449L22.8239 23.1576C22.9791 22.9507 23.1803 22.7827 23.4116 22.6671C23.643 22.5514 23.8981 22.4912 24.1567 22.4912H26.6557C27.0976 22.4912 27.5213 22.6667 27.8337 22.9791C28.1462 23.2916 28.3217 23.7153 28.3217 24.1572V26.6562C28.3217 27.098 28.1462 27.5218 27.8337 27.8342C27.5213 28.1467 27.0976 28.3222 26.6557 28.3222C22.679 28.3222 18.8652 26.7425 16.0533 23.9305C13.2414 21.1186 11.6616 17.3048 11.6616 13.3281C11.6616 12.8863 11.8371 12.4625 12.1496 12.1501C12.462 11.8376 12.8858 11.6621 13.3276 11.6621H15.8266C16.2685 11.6621 16.6923 11.8376 17.0047 12.1501C17.3171 12.4625 17.4927 12.8863 17.4927 13.3281V15.8271C17.4927 16.0858 17.4324 16.3409 17.3168 16.5722C17.2011 16.8035 17.0332 17.0048 16.8262 17.1599L16.4364 17.4523C16.2835 17.5691 16.1757 17.7352 16.1313 17.9224C16.087 18.1097 16.1089 18.3065 16.1932 18.4794C17.3316 20.7917 19.204 22.6618 21.5177 23.7973Z" stroke="#D7B56E" stroke-width="1.66601" stroke-linecap="round" stroke-linejoin="round"/>
</svg>
