<svg width="64" height="64" viewBox="0 0 64 64" fill="none" xmlns="http://www.w3.org/2000/svg">
<path d="M0 31.9968C0 14.3255 14.3255 0 31.9968 0C49.6682 0 63.9936 14.3255 63.9936 31.9968C63.9936 49.6682 49.6682 63.9936 31.9968 63.9936C14.3255 63.9936 0 49.6682 0 31.9968Z" fill="#D7B56E" fill-opacity="0.2"/>
<path d="M41.3169 38.6514H43.9825C44.7822 38.6514 45.3153 38.1183 45.3153 37.3186V33.3201C45.3153 32.1206 44.3824 31.0544 43.3161 30.7878C40.9171 30.1214 37.3185 29.3217 37.3185 29.3217C37.3185 29.3217 35.5858 27.4558 34.3863 26.2563C33.7199 25.7231 32.9202 25.3233 31.9873 25.3233H22.6576C21.8579 25.3233 21.1915 25.8564 20.7917 26.5228L18.9257 30.388C18.7493 30.9027 18.6592 31.4432 18.6592 31.9873V37.3186C18.6592 38.1183 19.1923 38.6514 19.992 38.6514H22.6576" stroke="#D7B56E" stroke-width="2.66561" stroke-linecap="round" stroke-linejoin="round"/>
<path d="M25.3233 41.317C26.7955 41.317 27.9889 40.1236 27.9889 38.6514C27.9889 37.1792 26.7955 35.9858 25.3233 35.9858C23.8512 35.9858 22.6577 37.1792 22.6577 38.6514C22.6577 40.1236 23.8512 41.317 25.3233 41.317Z" stroke="#D7B56E" stroke-width="2.66561" stroke-linecap="round" stroke-linejoin="round"/>
<path d="M27.9888 38.6514H35.9856" stroke="#D7B56E" stroke-width="2.66561" stroke-linecap="round" stroke-linejoin="round"/>
<path d="M38.6515 41.317C40.1236 41.317 41.3171 40.1236 41.3171 38.6514C41.3171 37.1792 40.1236 35.9858 38.6515 35.9858C37.1793 35.9858 35.9858 37.1792 35.9858 38.6514C35.9858 40.1236 37.1793 41.317 38.6515 41.317Z" stroke="#D7B56E" stroke-width="2.66561" stroke-linecap="round" stroke-linejoin="round"/>
</svg>
