<svg width="24" height="24" viewBox="0 0 24 24" fill="none" xmlns="http://www.w3.org/2000/svg">
<path d="M2.49907 16.9933C1.80077 13.6979 1.80077 10.2927 2.49907 6.99723C2.59082 6.66257 2.7681 6.35756 3.01347 6.11219C3.25884 5.86682 3.56386 5.68954 3.89852 5.59778C9.25985 4.70959 14.7308 4.70959 20.0921 5.59778C20.4268 5.68954 20.7318 5.86682 20.9772 6.11219C21.2225 6.35756 21.3998 6.66257 21.4916 6.99723C22.1899 10.2927 22.1899 13.6979 21.4916 16.9933C21.3998 17.3279 21.2225 17.633 20.9772 17.8783C20.7318 18.1237 20.4268 18.301 20.0921 18.3927C14.7308 19.2811 9.25983 19.2811 3.89852 18.3927C3.56386 18.301 3.25884 18.1237 3.01347 17.8783C2.7681 17.633 2.59082 17.3279 2.49907 16.9933Z" stroke="#BCBCBC" stroke-width="1.99921" stroke-linecap="round" stroke-linejoin="round"/>
<path d="M9.99609 14.9942L14.9941 11.9954L9.99609 8.99658V14.9942Z" stroke="#BCBCBC" stroke-width="1.99921" stroke-linecap="round" stroke-linejoin="round"/>
</svg>
